<svg width="860" height="540" viewBox="0 0 860 540" fill="none" xmlns="http://www.w3.org/2000/svg">
<g clip-path="url(#clip0_511_3091)">
<rect width="860" height="540" rx="40" fill="#D9D0F4"/>
<rect y="270" width="860" height="270" fill="#232323"/>
<path d="M108.85 333.9V300H96.5C95.2 300 94 300.7 94 302.5C94 304.3 95.2 305 96.5 305H103.85V333.9H96.5C95.2 333.9 94 334.6 94 336.4C94 338.2 95.2 338.9 96.5 338.9H116.2C117.5 338.9 118.7 338.2 118.7 336.4V323.8C118.7 322.35 118.05 321.3 116.2 321.3C114.35 321.3 113.7 322.35 113.7 323.8V333.9H108.85Z" fill="#FAFAFA"/>
<path d="M134.986 321.95H149.086C150.736 321.95 151.886 321.7 153.136 320.55C154.536 319.25 154.686 317.9 154.686 316.1V305.85C154.686 304.05 154.536 302.7 153.136 301.4C151.886 300.25 150.736 300 149.086 300H132.486C131.186 300 129.986 300.7 129.986 302.5C129.986 304.3 131.186 305 132.486 305H149.686V316.95H135.636C131.886 316.95 129.986 318.85 129.986 322.6V338.9H152.186C153.486 338.9 154.686 338.2 154.686 336.4C154.686 334.6 153.486 333.9 152.186 333.9H134.986V321.95Z" fill="#FAFAFA"/>
<path d="M185.673 305V313.3C185.673 316.1 184.573 316.95 183.173 316.95H173.373C172.073 316.95 170.873 317.65 170.873 319.45C170.873 321.25 172.073 321.95 173.373 321.95H183.173C184.573 321.95 185.673 322.8 185.673 325.6V333.9H168.473C167.173 333.9 165.973 334.6 165.973 336.4C165.973 338.2 167.173 338.9 168.473 338.9H185.673C188.523 338.9 190.673 336.75 190.673 333.9V324.3C190.673 322.3 190.273 320.85 188.723 319.45C190.273 318.05 190.673 316.6 190.673 314.6V305C190.673 302.15 188.523 300 185.673 300H168.473C167.173 300 165.973 300.7 165.973 302.5C165.973 304.3 167.173 305 168.473 305H185.673Z" fill="#FAFAFA"/>
<path d="M209.459 321.2V302.5C209.459 301.25 208.859 300 206.959 300C205.059 300 204.459 301.25 204.459 302.5V326.2H219.159V336.4C219.159 338 219.859 338.9 221.659 338.9C223.459 338.9 224.159 338 224.159 336.4V326.2C225.459 326.2 226.659 325.5 226.659 323.7C226.659 321.9 225.459 321.2 224.159 321.2V306.75C224.159 305.5 223.559 304.25 221.659 304.25C219.759 304.25 219.159 305.5 219.159 306.75V321.2H209.459Z" fill="#FAFAFA"/>
<path d="M283.882 305H296.132C297.432 305 298.632 304.3 298.632 302.5C298.632 300.7 297.432 300 296.132 300H278.882V321.95H293.632V333.9H282.082C281.282 333.9 280.132 333.2 279.432 332.9L277.932 332.25C277.382 332 276.932 331.85 276.332 331.85C275.032 331.85 273.932 333.05 273.932 334.35C273.932 336.1 275.432 336.55 276.782 337.15L278.682 338C279.932 338.55 280.682 338.9 281.982 338.9H293.082C294.882 338.9 296.182 338.7 297.432 337.2C298.482 335.95 298.632 334.85 298.632 333.3V322.6C298.632 320.85 298.482 319.65 297.082 318.35C295.882 317.2 294.682 316.95 293.082 316.95H283.882V305Z" fill="#FAFAFA"/>
<path d="M314.918 305C316.368 305 317.418 304 317.418 302.5C317.418 301.2 316.368 300 315.068 300H312.068C310.318 300 309.918 301.35 309.918 302.5V335.75C309.918 338.05 310.818 338.9 313.168 338.9H331.368C333.618 338.9 334.618 338.1 334.618 335.75V324.55C334.618 322.25 334.118 321.2 331.618 321.2H314.918V305ZM329.618 326.2V333.9H314.918V326.2H329.618Z" fill="#FAFAFA"/>
<path d="M365.604 305V311.9C365.604 314.1 365.704 314.05 364.054 315.5L357.154 321.45C355.904 322.55 355.854 322.7 355.854 324.35V336.4C355.854 338 356.554 338.9 358.354 338.9C360.154 338.9 360.854 338 360.854 336.4V326.7C360.854 324.95 360.954 324.85 362.254 323.7L369.254 317.65C370.654 316.45 370.604 316.25 370.604 314.5V300H348.404C346.804 300 345.904 301.4 345.904 302.5V305C345.904 306.1 346.804 307.5 348.404 307.5C350.004 307.5 350.904 306.1 350.904 305H365.604Z" fill="#FAFAFA"/>
<path d="M391.891 316.95V305H396.591V316.95H391.891ZM389.391 300C387.691 300 386.891 301.2 386.891 302.5V316.95C385.341 316.95 384.141 317.5 383.241 318.35C382.341 319.2 381.891 320.45 381.891 322V333.9C381.891 336.95 383.791 338.9 386.891 338.9H401.591C404.691 338.9 406.591 336.95 406.591 333.9V322C406.591 320.45 406.141 319.2 405.241 318.35C404.341 317.5 403.141 316.95 401.591 316.95V302.5C401.591 301.2 400.791 300 399.091 300H389.391ZM386.891 333.9V321.95H401.591V333.9H386.891Z" fill="#FAFAFA"/>
<path d="M473.563 333.9C472.113 333.9 471.063 334.9 471.063 336.4C471.063 337.75 472.063 338.9 473.563 338.9H476.063C477.563 338.9 478.563 337.75 478.563 336.4V302.5C478.563 301.2 477.463 300 476.063 300H456.363C454.963 300 453.863 301.2 453.863 302.5V315.3C453.863 316.6 454.963 317.8 456.363 317.8H473.563V333.9ZM458.863 312.8V305H473.563V312.8H458.863Z" fill="#FAFAFA"/>
<path d="M494.85 300C492.1 300 489.85 302.25 489.85 305V333.9C489.85 336.7 492 338.9 494.85 338.9H509.55C512.4 338.9 514.55 336.7 514.55 333.9V305C514.55 302.25 512.3 300 509.55 300H494.85ZM494.85 333.9V305H509.55V333.9H494.85Z" fill="#FAFAFA"/>
<path d="M530.836 300C528.086 300 525.836 302.25 525.836 305V333.9C525.836 336.7 527.986 338.9 530.836 338.9H545.536C548.386 338.9 550.536 336.7 550.536 333.9V305C550.536 302.25 548.286 300 545.536 300H530.836ZM530.836 333.9V305H545.536V333.9H530.836Z" fill="#FAFAFA"/>
<path d="M566.822 300C564.072 300 561.822 302.25 561.822 305V333.9C561.822 336.7 563.972 338.9 566.822 338.9H581.522C584.372 338.9 586.522 336.7 586.522 333.9V305C586.522 302.25 584.272 300 581.522 300H566.822ZM566.822 333.9V305H581.522V333.9H566.822Z" fill="#FAFAFA"/>
<path d="M638.795 300C636.045 300 633.795 302.25 633.795 305V333.9C633.795 336.7 635.945 338.9 638.795 338.9H653.495C656.345 338.9 658.495 336.7 658.495 333.9V305C658.495 302.25 656.245 300 653.495 300H638.795ZM638.795 333.9V305H653.495V333.9H638.795Z" fill="#FAFAFA"/>
<path d="M674.781 300C672.031 300 669.781 302.25 669.781 305V333.9C669.781 336.7 671.931 338.9 674.781 338.9H689.481C692.331 338.9 694.481 336.7 694.481 333.9V305C694.481 302.25 692.231 300 689.481 300H674.781ZM674.781 333.9V305H689.481V333.9H674.781Z" fill="#FAFAFA"/>
<path d="M710.768 300C708.018 300 705.768 302.25 705.768 305V333.9C705.768 336.7 707.918 338.9 710.768 338.9H725.468C728.318 338.9 730.468 336.7 730.468 333.9V305C730.468 302.25 728.218 300 725.468 300H710.768ZM710.768 333.9V305H725.468V333.9H710.768Z" fill="#FAFAFA"/>
<path d="M746.754 300C744.004 300 741.754 302.25 741.754 305V333.9C741.754 336.7 743.904 338.9 746.754 338.9H761.454C764.304 338.9 766.454 336.7 766.454 333.9V305C766.454 302.25 764.204 300 761.454 300H746.754ZM746.754 333.9V305H761.454V333.9H746.754Z" fill="#FAFAFA"/>
<path d="M102.688 411.9L102.664 400.764L97.144 409.98H95.752L90.232 400.908V411.9H87.256V395.1H89.824L96.496 406.236L103.048 395.1H105.616L105.64 411.9H102.688ZM109.89 399.084H112.89V411.9H109.89V399.084ZM111.402 396.972C110.858 396.972 110.402 396.804 110.034 396.468C109.666 396.116 109.482 395.684 109.482 395.172C109.482 394.66 109.666 394.236 110.034 393.9C110.402 393.548 110.858 393.372 111.402 393.372C111.946 393.372 112.402 393.54 112.77 393.876C113.138 394.196 113.322 394.604 113.322 395.1C113.322 395.628 113.138 396.076 112.77 396.444C112.418 396.796 111.962 396.972 111.402 396.972ZM122.707 412.068C121.379 412.068 120.187 411.788 119.131 411.228C118.075 410.668 117.251 409.892 116.659 408.9C116.067 407.892 115.771 406.756 115.771 405.492C115.771 404.228 116.067 403.1 116.659 402.108C117.251 401.116 118.067 400.34 119.107 399.78C120.163 399.22 121.363 398.94 122.707 398.94C123.971 398.94 125.075 399.196 126.019 399.708C126.979 400.22 127.699 400.956 128.179 401.916L125.875 403.26C125.507 402.668 125.043 402.228 124.483 401.94C123.939 401.636 123.339 401.484 122.683 401.484C121.563 401.484 120.635 401.852 119.899 402.588C119.163 403.308 118.795 404.276 118.795 405.492C118.795 406.708 119.155 407.684 119.875 408.42C120.611 409.14 121.547 409.5 122.683 409.5C123.339 409.5 123.939 409.356 124.483 409.068C125.043 408.764 125.507 408.316 125.875 407.724L128.179 409.068C127.683 410.028 126.955 410.772 125.995 411.3C125.051 411.812 123.955 412.068 122.707 412.068ZM135.888 406.404L133.656 408.516V411.9H130.656V394.092H133.656V404.844L139.872 399.084H143.472L138.12 404.46L143.976 411.9H140.328L135.888 406.404ZM164.306 403.308H167.258V410.004C166.394 410.692 165.386 411.22 164.234 411.588C163.082 411.956 161.898 412.14 160.682 412.14C158.97 412.14 157.426 411.772 156.05 411.036C154.674 410.284 153.594 409.252 152.81 407.94C152.026 406.628 151.634 405.148 151.634 403.5C151.634 401.852 152.026 400.372 152.81 399.06C153.594 397.748 154.674 396.724 156.05 395.988C157.442 395.236 159.002 394.86 160.73 394.86C162.138 394.86 163.418 395.092 164.57 395.556C165.722 396.02 166.69 396.7 167.474 397.596L165.506 399.516C164.226 398.236 162.682 397.596 160.874 397.596C159.69 397.596 158.634 397.844 157.706 398.34C156.794 398.836 156.074 399.532 155.546 400.428C155.034 401.324 154.778 402.348 154.778 403.5C154.778 404.62 155.034 405.628 155.546 406.524C156.074 407.42 156.794 408.124 157.706 408.636C158.634 409.148 159.682 409.404 160.85 409.404C162.162 409.404 163.314 409.116 164.306 408.54V403.308ZM175.981 398.94C177.869 398.94 179.309 399.396 180.301 400.308C181.309 401.204 181.813 402.564 181.813 404.388V411.9H178.981V410.34C178.613 410.9 178.085 411.332 177.397 411.636C176.725 411.924 175.909 412.068 174.949 412.068C173.989 412.068 173.149 411.908 172.429 411.588C171.709 411.252 171.149 410.796 170.749 410.22C170.365 409.628 170.173 408.964 170.173 408.228C170.173 407.076 170.597 406.156 171.445 405.468C172.309 404.764 173.661 404.412 175.501 404.412H178.813V404.22C178.813 403.324 178.541 402.636 177.997 402.156C177.469 401.676 176.677 401.436 175.621 401.436C174.901 401.436 174.189 401.548 173.485 401.772C172.797 401.996 172.213 402.308 171.733 402.708L170.557 400.524C171.229 400.012 172.037 399.62 172.981 399.348C173.925 399.076 174.925 398.94 175.981 398.94ZM175.573 409.884C176.325 409.884 176.989 409.716 177.565 409.38C178.157 409.028 178.573 408.532 178.813 407.892V406.404H175.717C173.989 406.404 173.125 406.972 173.125 408.108C173.125 408.652 173.341 409.084 173.773 409.404C174.205 409.724 174.805 409.884 175.573 409.884ZM188.519 400.956C189.383 399.612 190.903 398.94 193.079 398.94V401.796C192.823 401.748 192.591 401.724 192.383 401.724C191.215 401.724 190.303 402.068 189.647 402.756C188.991 403.428 188.663 404.404 188.663 405.684V411.9H185.663V399.084H188.519V400.956ZM208.059 394.092V411.9H205.179V410.244C204.683 410.852 204.067 411.308 203.331 411.612C202.611 411.916 201.811 412.068 200.931 412.068C199.699 412.068 198.587 411.796 197.595 411.252C196.619 410.708 195.851 409.94 195.291 408.948C194.731 407.94 194.451 406.788 194.451 405.492C194.451 404.196 194.731 403.052 195.291 402.06C195.851 401.068 196.619 400.3 197.595 399.756C198.587 399.212 199.699 398.94 200.931 398.94C201.779 398.94 202.555 399.084 203.259 399.372C203.963 399.66 204.563 400.092 205.059 400.668V394.092H208.059ZM201.291 409.5C202.011 409.5 202.659 409.34 203.235 409.02C203.811 408.684 204.267 408.212 204.603 407.604C204.939 406.996 205.107 406.292 205.107 405.492C205.107 404.692 204.939 403.988 204.603 403.38C204.267 402.772 203.811 402.308 203.235 401.988C202.659 401.652 202.011 401.484 201.291 401.484C200.571 401.484 199.923 401.652 199.347 401.988C198.771 402.308 198.315 402.772 197.979 403.38C197.643 403.988 197.475 404.692 197.475 405.492C197.475 406.292 197.643 406.996 197.979 407.604C198.315 408.212 198.771 408.684 199.347 409.02C199.923 409.34 200.571 409.5 201.291 409.5ZM223.984 399.084L217.984 412.932C217.424 414.324 216.744 415.3 215.944 415.86C215.144 416.436 214.176 416.724 213.04 416.724C212.4 416.724 211.768 416.62 211.144 416.412C210.52 416.204 210.008 415.916 209.608 415.548L210.808 413.34C211.096 413.612 211.432 413.828 211.816 413.988C212.216 414.148 212.616 414.228 213.016 414.228C213.544 414.228 213.976 414.092 214.312 413.82C214.664 413.548 214.984 413.092 215.272 412.452L215.488 411.948L209.896 399.084H213.016L217.048 408.564L221.104 399.084H223.984Z" fill="#FAFAFA"/>
<path d="M270.864 395.1V411.9H267.744V397.716H264.192V395.1H270.864ZM286.365 409.26V411.9H273.981V409.812L280.653 403.476C281.405 402.756 281.909 402.132 282.165 401.604C282.437 401.06 282.573 400.524 282.573 399.996C282.573 399.212 282.309 398.612 281.781 398.196C281.253 397.78 280.477 397.572 279.453 397.572C277.741 397.572 276.429 398.156 275.517 399.324L273.333 397.644C273.989 396.764 274.869 396.084 275.973 395.604C277.093 395.108 278.341 394.86 279.717 394.86C281.541 394.86 282.997 395.292 284.085 396.156C285.173 397.02 285.717 398.196 285.717 399.684C285.717 400.596 285.525 401.452 285.141 402.252C284.757 403.052 284.021 403.964 282.933 404.988L278.445 409.26H286.365ZM294.544 391.692H297.232L289.312 414.3H286.624L294.544 391.692ZM309.474 409.26V411.9H297.09V409.812L303.762 403.476C304.514 402.756 305.018 402.132 305.274 401.604C305.546 401.06 305.682 400.524 305.682 399.996C305.682 399.212 305.418 398.612 304.89 398.196C304.362 397.78 303.586 397.572 302.562 397.572C300.85 397.572 299.538 398.156 298.626 399.324L296.442 397.644C297.098 396.764 297.978 396.084 299.082 395.604C300.202 395.108 301.45 394.86 302.826 394.86C304.65 394.86 306.106 395.292 307.194 396.156C308.282 397.02 308.826 398.196 308.826 399.684C308.826 400.596 308.634 401.452 308.25 402.252C307.866 403.052 307.13 403.964 306.042 404.988L301.554 409.26H309.474ZM325.899 408.084H322.923V411.9H319.899V408.084H310.683V405.924L318.963 395.1H322.299L314.499 405.444H319.995V402.06H322.923V405.444H325.899V408.084Z" fill="#FAFAFA"/>
<g filter="url(#filter0_b_511_3091)">
<path d="M100 181C100 172.163 107.163 165 116 165H196C204.837 165 212 172.163 212 181V229C212 237.837 204.837 245 196 245H116C107.163 245 100 237.837 100 229V181Z" fill="#232323" fill-opacity="0.3"/>
<path d="M101 181C101 172.716 107.716 166 116 166H196C204.284 166 211 172.716 211 181V229C211 237.284 204.284 244 196 244H116C107.716 244 101 237.284 101 229V181Z" stroke="#232323" stroke-opacity="0.3" stroke-width="2"/>
</g>
<path d="M127 167H129V243H127V219H102V217H127V193H102V191H127V167Z" fill="#232323" fill-opacity="0.3"/>
<path d="M184 217H210V219H184V243H182V203C182 196.373 187.373 191 194 191H210V193H194C188.477 193 184 197.477 184 203V217Z" fill="#232323" fill-opacity="0.3"/>
<path d="M184 167H182V183H184V167Z" fill="#232323" fill-opacity="0.3"/>
<path fill-rule="evenodd" clip-rule="evenodd" d="M170 205C170 212.732 163.732 219 156 219C148.268 219 142 212.732 142 205C142 197.268 148.268 191 156 191C163.732 191 170 197.268 170 205ZM168 205C168 211.627 162.627 217 156 217C149.373 217 144 211.627 144 205C144 198.373 149.373 193 156 193C162.627 193 168 198.373 168 205Z" fill="#232323" fill-opacity="0.3"/>
<path d="M724.6 104.6C725.4 105.6 726 106.8 726.4 108C726.8 109.2 727 110.6 727 112C727 113.4 726.8 114.8 726.4 116C726 117.2 725.4 118.4 724.6 119.4C723.6 120.8 723.8 122.8 725.2 123.8C726.6 124.8 728.6 124.6 729.6 123.2C730.8 121.6 731.6 120 732.4 118C733.2 116 733.4 114 733.4 112C733.4 110 733 108 732.4 106C731.8 104.2 730.8 102.4 729.6 100.8C728.6 99.4 726.6 99.2 725.2 100.2C723.8 101.2 723.6 103.2 724.6 104.6Z" fill="#232323"/>
<path d="M735.6 98.8C738 102.6 739.4 107.2 739.4 112C739.4 116.8 738 121.4 735.6 125.2C734.6 126.6 735.2 128.6 736.6 129.6C738.2 130.6 740 130 741 128.6C744 123.8 745.8 118.2 745.8 112C745.8 106 744 100.2 741 95.4C740 94 738 93.4 736.6 94.4C735.2 95.4 734.6 97.2 735.6 98.8Z" fill="#232323"/>
<path d="M747.2 92.8C750.6 98.4 752.4 105 752.4 112C752.4 119 750.4 125.6 747.2 131.2C746.4 132.8 746.8 134.6 748.4 135.6C750 136.4 751.8 136 752.8 134.4C756.8 127.8 759 120.2 759 112C759 103.8 756.8 96.2 752.8 89.6C752 88 750 87.6 748.4 88.4C746.8 89.4 746.4 91.2 747.2 92.8Z" fill="#232323"/>
<path d="M758.8 86.8C763 94.2 765.6 102.8 765.6 112C765.6 121.2 763.2 129.8 758.8 137.2C758 138.8 758.4 140.6 760 141.6C761.6 142.4 763.4 142 764.4 140.4C769.2 132 772 122.4 772 112C772 101.6 769.2 92 764.4 83.6C763.6 82 761.6 81.6 760 82.4C758.4 83.2 758 85.2 758.8 86.8Z" fill="#232323"/>
<g filter="url(#filter1_b_511_3091)">
<ellipse cx="713.239" cy="439.254" rx="37.3134" ry="37.3134" fill="#FAFAFA" fill-opacity="0.3"/>
</g>
<g filter="url(#filter2_b_511_3091)">
<path d="M796.821 439.254C796.821 459.861 780.115 476.567 759.508 476.567C738.9 476.567 722.194 459.861 722.194 439.254C722.194 418.646 738.9 401.94 759.508 401.94C780.115 401.94 796.821 418.646 796.821 439.254Z" fill="#FAFAFA" fill-opacity="0.7"/>
</g>
<g filter="url(#filter3_b_511_3091)">
<path d="M736.373 409.976C727.736 416.81 722.194 427.385 722.194 439.254C722.194 451.123 727.736 461.698 736.373 468.532C745.011 461.698 750.553 451.123 750.553 439.254C750.553 427.385 745.011 416.81 736.373 409.976Z" fill="#FAFAFA" fill-opacity="0.6"/>
</g>
</g>
<rect x="2.5" y="2.5" width="855" height="535" rx="37.5" stroke="url(#paint0_linear_511_3091)" stroke-width="5"/>
<defs>
<filter id="filter0_b_511_3091" x="75" y="140" width="162" height="130" filterUnits="userSpaceOnUse" color-interpolation-filters="sRGB">
<feFlood flood-opacity="0" result="BackgroundImageFix"/>
<feGaussianBlur in="BackgroundImageFix" stdDeviation="12.5"/>
<feComposite in2="SourceAlpha" operator="in" result="effect1_backgroundBlur_511_3091"/>
<feBlend mode="normal" in="SourceGraphic" in2="effect1_backgroundBlur_511_3091" result="shape"/>
</filter>
<filter id="filter1_b_511_3091" x="625.925" y="351.94" width="174.627" height="174.627" filterUnits="userSpaceOnUse" color-interpolation-filters="sRGB">
<feFlood flood-opacity="0" result="BackgroundImageFix"/>
<feGaussianBlur in="BackgroundImageFix" stdDeviation="25"/>
<feComposite in2="SourceAlpha" operator="in" result="effect1_backgroundBlur_511_3091"/>
<feBlend mode="normal" in="SourceGraphic" in2="effect1_backgroundBlur_511_3091" result="shape"/>
</filter>
<filter id="filter2_b_511_3091" x="672.194" y="351.94" width="174.627" height="174.627" filterUnits="userSpaceOnUse" color-interpolation-filters="sRGB">
<feFlood flood-opacity="0" result="BackgroundImageFix"/>
<feGaussianBlur in="BackgroundImageFix" stdDeviation="25"/>
<feComposite in2="SourceAlpha" operator="in" result="effect1_backgroundBlur_511_3091"/>
<feBlend mode="normal" in="SourceGraphic" in2="effect1_backgroundBlur_511_3091" result="shape"/>
</filter>
<filter id="filter3_b_511_3091" x="672.194" y="359.976" width="128.358" height="158.556" filterUnits="userSpaceOnUse" color-interpolation-filters="sRGB">
<feFlood flood-opacity="0" result="BackgroundImageFix"/>
<feGaussianBlur in="BackgroundImageFix" stdDeviation="25"/>
<feComposite in2="SourceAlpha" operator="in" result="effect1_backgroundBlur_511_3091"/>
<feBlend mode="normal" in="SourceGraphic" in2="effect1_backgroundBlur_511_3091" result="shape"/>
</filter>
<linearGradient id="paint0_linear_511_3091" x1="-6.4075e-06" y1="270" x2="860" y2="270" gradientUnits="userSpaceOnUse">
<stop stop-color="white" stop-opacity="0.8"/>
<stop offset="1" stop-color="white" stop-opacity="0.1"/>
</linearGradient>
<clipPath id="clip0_511_3091">
<rect width="860" height="540" rx="40" fill="white"/>
</clipPath>
</defs>
</svg>
