<svg width="860" height="540" viewBox="0 0 860 540" fill="none" xmlns="http://www.w3.org/2000/svg">
<g clip-path="url(#clip0_566_512)">
<rect width="860" height="540" fill="black"/>
<path d="M432.305 274.595C443.769 268.504 452.033 261.631 450.764 259.243C449.495 256.855 439.174 259.856 427.71 265.947C416.247 272.037 407.983 278.911 409.252 281.299C410.52 283.687 420.842 280.686 432.305 274.595Z" stroke="url(#paint0_linear_566_512)" stroke-width="2" stroke-miterlimit="10"/>
<path d="M432.482 274.702C444.729 267.882 453.555 260.375 452.196 257.933C450.836 255.492 439.806 259.041 427.559 265.86C415.312 272.68 406.486 280.187 407.845 282.629C409.205 285.07 420.235 281.521 432.482 274.702Z" stroke="url(#paint1_linear_566_512)" stroke-width="2" stroke-miterlimit="10"/>
<path d="M432.711 274.776C445.8 267.156 455.234 258.959 453.783 256.466C452.332 253.973 440.545 258.128 427.455 265.747C414.366 273.366 404.932 281.564 406.383 284.057C407.834 286.55 419.622 282.395 432.711 274.776Z" stroke="url(#paint2_linear_566_512)" stroke-width="2" stroke-miterlimit="10"/>
<path d="M432.751 274.922C446.698 266.456 456.752 257.531 455.209 254.988C453.665 252.445 441.108 257.247 427.161 265.714C413.214 274.18 403.159 283.105 404.702 285.648C406.246 288.191 418.803 283.388 432.751 274.922Z" stroke="url(#paint3_linear_566_512)" stroke-width="2" stroke-miterlimit="10"/>
<path d="M433.01 274.999C447.833 265.633 458.522 255.94 456.884 253.349C455.247 250.758 441.904 256.25 427.081 265.616C412.259 274.982 401.57 284.676 403.207 287.267C404.845 289.858 418.188 284.365 433.01 274.999Z" stroke="url(#paint4_linear_566_512)" stroke-width="2" stroke-miterlimit="10"/>
<path d="M433.146 275.039C448.894 264.698 460.257 254.177 458.525 251.539C456.793 248.902 442.623 255.147 426.874 265.489C411.126 275.83 399.763 286.351 401.495 288.989C403.227 291.626 417.397 285.381 433.146 275.039Z" stroke="url(#paint5_linear_566_512)" stroke-width="2" stroke-miterlimit="10"/>
<path d="M433.287 275.242C449.974 263.874 462 252.454 460.148 249.735C458.295 247.016 443.266 254.028 426.579 265.396C409.892 276.764 397.866 288.184 399.719 290.903C401.571 293.622 416.6 286.611 433.287 275.242Z" stroke="url(#paint6_linear_566_512)" stroke-width="2" stroke-miterlimit="10"/>
<path d="M433.511 275.365C451.184 262.888 463.91 250.506 461.934 247.707C459.959 244.909 444.03 252.755 426.357 265.232C408.684 277.708 395.958 290.091 397.934 292.89C399.909 295.688 415.838 287.842 433.511 275.365Z" stroke="url(#paint7_linear_566_512)" stroke-width="2" stroke-miterlimit="10"/>
<path d="M433.795 275.463C452.427 261.847 465.828 248.479 463.727 245.604C461.627 242.729 444.819 251.436 426.187 265.052C407.554 278.667 394.153 292.035 396.254 294.91C398.355 297.785 415.162 289.078 433.795 275.463Z" stroke="url(#paint8_linear_566_512)" stroke-width="2" stroke-miterlimit="10"/>
<path d="M434.047 275.708C453.682 260.873 467.794 246.457 465.566 243.508C463.339 240.559 445.614 250.194 425.979 265.028C406.343 279.863 392.231 294.279 394.459 297.228C396.687 300.177 414.411 290.542 434.047 275.708Z" stroke="url(#paint9_linear_566_512)" stroke-width="2" stroke-miterlimit="10"/>
<path d="M434.406 275.792C455.084 259.649 469.914 244.085 467.529 241.03C465.143 237.974 446.446 248.583 425.767 264.727C405.089 280.87 390.259 296.434 392.644 299.489C395.03 302.545 413.727 291.935 434.406 275.792Z" stroke="url(#paint10_linear_566_512)" stroke-width="2" stroke-miterlimit="10"/>
<path d="M434.593 276.053C456.281 258.574 471.798 241.845 469.253 238.686C466.708 235.528 447.063 247.137 425.375 264.616C403.688 282.094 388.17 298.824 390.715 301.982C393.261 305.141 412.906 293.532 434.593 276.053Z" stroke="url(#paint11_linear_566_512)" stroke-width="2" stroke-miterlimit="10"/>
<path d="M434.823 276.189C457.554 257.283 473.785 239.317 471.076 236.06C468.367 232.803 447.744 245.488 425.013 264.393C402.281 283.299 386.05 301.265 388.759 304.522C391.468 307.78 412.091 295.094 434.823 276.189Z" stroke="url(#paint12_linear_566_512)" stroke-width="2" stroke-miterlimit="10"/>
<path d="M435.207 276.321C458.983 255.925 475.925 236.673 473.049 233.321C470.173 229.968 448.568 243.785 424.792 264.18C401.016 284.576 384.074 303.828 386.95 307.181C389.825 310.533 411.431 296.717 435.207 276.321Z" stroke="url(#paint13_linear_566_512)" stroke-width="2" stroke-miterlimit="10"/>
<path d="M435.608 276.601C460.458 254.624 478.11 233.988 475.034 230.511C471.959 227.033 449.32 242.03 424.47 264.007C399.62 285.984 381.969 306.619 385.044 310.097C388.12 313.575 410.758 298.578 435.608 276.601Z" stroke="url(#paint14_linear_566_512)" stroke-width="2" stroke-miterlimit="10"/>
<path d="M435.988 276.881C461.869 253.288 480.166 231.218 476.856 227.587C473.546 223.957 449.883 240.14 424.002 263.734C398.122 287.328 379.824 309.397 383.134 313.028C386.444 316.659 410.107 300.475 435.988 276.881Z" stroke="url(#paint15_linear_566_512)" stroke-width="2" stroke-miterlimit="10"/>
<path d="M436.489 277.102C463.392 251.823 482.324 228.268 478.774 224.491C475.225 220.713 450.538 238.143 423.635 263.422C396.732 288.701 377.8 312.256 381.35 316.033C384.899 319.811 409.586 302.381 436.489 277.102Z" stroke="url(#paint16_linear_566_512)" stroke-width="2" stroke-miterlimit="10"/>
<path d="M436.928 277.349C464.839 250.32 484.39 225.232 480.596 221.314C476.802 217.396 451.099 236.132 423.188 263.161C395.277 290.191 375.726 315.279 379.52 319.197C383.314 323.115 409.016 304.379 436.928 277.349Z" stroke="url(#paint17_linear_566_512)" stroke-width="2" stroke-miterlimit="10"/>
<path d="M437.373 277.726C466.308 248.848 486.461 222.127 482.386 218.044C478.31 213.96 451.55 234.06 422.615 262.938C393.68 291.816 373.527 318.537 377.602 322.62C381.677 326.704 408.438 306.604 437.373 277.726Z" stroke="url(#paint18_linear_566_512)" stroke-width="2" stroke-miterlimit="10"/>
<path d="M437.93 277.98C467.806 247.243 488.488 218.887 484.124 214.646C479.761 210.405 452.004 231.885 422.129 262.622C392.253 293.36 371.57 321.715 375.934 325.956C380.297 330.198 408.054 308.718 437.93 277.98Z" stroke="url(#paint19_linear_566_512)" stroke-width="2" stroke-miterlimit="10"/>
<path d="M438.543 278.311C469.365 245.611 490.523 215.493 485.8 211.041C481.077 206.589 452.261 229.489 421.439 262.19C390.617 294.891 369.459 325.009 374.182 329.461C378.905 333.912 407.721 311.012 438.543 278.311Z" stroke="url(#paint20_linear_566_512)" stroke-width="2" stroke-miterlimit="10"/>
<path d="M439.173 278.664C470.887 243.961 492.495 212.082 487.438 207.46C482.38 202.839 452.572 227.224 420.859 261.927C389.146 296.63 367.537 328.509 372.594 333.131C377.652 337.753 407.46 313.367 439.173 278.664Z" stroke="url(#paint21_linear_566_512)" stroke-width="2" stroke-miterlimit="10"/>
<path d="M439.865 278.982C472.403 242.233 494.348 208.518 488.881 203.678C483.414 198.837 452.606 224.704 420.068 261.453C387.531 298.202 365.586 331.917 371.052 336.757C376.519 341.598 407.328 315.731 439.865 278.982Z" stroke="url(#paint22_linear_566_512)" stroke-width="2" stroke-miterlimit="10"/>
<path d="M440.749 279.513C474.082 240.646 496.305 205.022 490.386 199.946C484.467 194.87 452.647 222.263 419.314 261.131C385.982 299.998 363.759 335.621 369.678 340.698C375.597 345.774 407.417 318.38 440.749 279.513Z" stroke="url(#paint23_linear_566_512)" stroke-width="2" stroke-miterlimit="10"/>
<path d="M441.518 279.906C475.54 238.911 497.946 201.384 491.565 196.088C485.183 190.792 452.43 219.732 418.408 260.727C384.386 301.723 361.98 339.249 368.361 344.545C374.743 349.842 407.496 320.902 441.518 279.906Z" stroke="url(#paint24_linear_566_512)" stroke-width="2" stroke-miterlimit="10"/>
<path d="M442.525 280.264C477.191 237.057 499.678 197.526 492.752 191.969C485.827 186.413 452.11 216.934 417.445 260.142C382.779 303.349 360.292 342.88 367.218 348.436C374.144 353.993 407.86 323.471 442.525 280.264Z" stroke="url(#paint25_linear_566_512)" stroke-width="2" stroke-miterlimit="10"/>
<path d="M443.604 280.806C478.808 235.384 501.253 193.839 493.736 188.013C486.219 182.187 451.587 214.286 416.383 259.708C381.178 305.13 358.733 346.675 366.25 352.501C373.767 358.327 408.399 326.228 443.604 280.806Z" stroke="url(#paint26_linear_566_512)" stroke-width="2" stroke-miterlimit="10"/>
<path d="M444.822 281.429C480.481 233.749 502.746 190.129 494.552 184.001C486.359 177.874 450.81 211.559 415.151 259.239C379.493 306.919 357.227 350.538 365.421 356.666C373.614 362.793 409.163 329.109 444.822 281.429Z" stroke="url(#paint27_linear_566_512)" stroke-width="2" stroke-miterlimit="10"/>
<path d="M446.059 281.881C482.026 231.967 503.979 186.313 495.094 179.91C486.208 173.507 449.848 208.78 413.881 258.694C377.914 308.608 355.961 354.262 364.847 360.665C373.733 367.068 410.093 331.795 446.059 281.881Z" stroke="url(#paint28_linear_566_512)" stroke-width="2" stroke-miterlimit="10"/>
<path d="M447.499 282.459C483.679 230.269 505.141 182.507 495.437 175.78C485.732 169.052 448.536 205.907 412.356 258.097C376.176 310.286 354.714 358.048 364.418 364.776C374.123 371.504 411.319 334.649 447.499 282.459Z" stroke="url(#paint29_linear_566_512)" stroke-width="2" stroke-miterlimit="10"/>
<path d="M449.216 283.03C485.485 228.553 506.28 178.661 495.663 171.592C485.045 164.523 447.036 202.954 410.766 257.43C374.497 311.907 353.702 361.799 364.319 368.868C374.937 375.937 412.946 337.506 449.216 283.03Z" stroke="url(#paint30_linear_566_512)" stroke-width="2" stroke-miterlimit="10"/>
<path d="M451.022 283.62C487.25 226.854 507.224 174.841 495.635 167.445C484.047 160.049 445.284 200.071 409.056 256.837C372.828 313.603 352.854 365.616 364.443 373.012C376.032 380.408 414.795 340.386 451.022 283.62Z" stroke="url(#paint31_linear_566_512)" stroke-width="2" stroke-miterlimit="10"/>
<path d="M453.087 284.311C489.086 225.331 507.945 171.217 495.21 163.445C482.475 155.672 442.969 197.184 406.97 256.164C370.971 315.144 352.112 369.258 364.847 377.03C377.582 384.803 417.088 343.291 453.087 284.311Z" stroke="url(#paint32_linear_566_512)" stroke-width="2" stroke-miterlimit="10"/>
<path d="M455.288 284.993C490.919 223.8 508.499 167.612 494.554 159.492C480.61 151.373 440.421 194.397 404.79 255.59C369.159 316.782 351.579 372.971 365.524 381.09C379.468 389.21 419.657 346.186 455.288 284.993Z" stroke="url(#paint33_linear_566_512)" stroke-width="2" stroke-miterlimit="10"/>
<path d="M457.696 285.65C492.781 222.288 508.79 164.037 493.452 155.544C478.114 147.051 437.238 191.532 402.152 254.894C367.067 318.257 351.058 376.508 366.396 385.001C381.734 393.494 422.61 349.013 457.696 285.65Z" stroke="url(#paint34_linear_566_512)" stroke-width="2" stroke-miterlimit="10"/>
<path d="M460.647 286.43C495.025 220.943 509.177 160.654 492.257 151.771C475.336 142.889 433.75 188.776 399.372 254.263C364.994 319.75 350.842 380.039 367.762 388.922C384.683 397.804 426.269 351.917 460.647 286.43Z" stroke="url(#paint35_linear_566_512)" stroke-width="2" stroke-miterlimit="10"/>
<path d="M463.825 287.052C497.293 219.529 509.299 157.293 490.641 148.046C471.983 138.798 429.727 186.04 396.26 253.563C362.792 321.086 350.786 383.321 369.444 392.569C388.101 401.817 430.357 354.575 463.825 287.052Z" stroke="url(#paint36_linear_566_512)" stroke-width="2" stroke-miterlimit="10"/>
<path d="M467.412 287.676C499.788 218.177 509.308 154.044 488.675 144.432C468.042 134.82 425.069 183.368 392.692 252.867C360.315 322.367 350.795 386.499 371.428 396.111C392.062 405.724 435.035 357.175 467.412 287.676Z" stroke="url(#paint37_linear_566_512)" stroke-width="2" stroke-miterlimit="10"/>
<path d="M471.253 288.256C502.335 216.893 509.04 150.988 486.23 141.053C463.421 131.119 419.733 180.917 388.652 252.28C357.57 323.644 350.865 389.549 373.675 399.483C396.485 409.418 440.172 359.62 471.253 288.256Z" stroke="url(#paint38_linear_566_512)" stroke-width="2" stroke-miterlimit="10"/>
<path d="M475.805 288.893C505.399 215.782 508.867 148.207 483.549 137.958C458.232 127.71 413.718 178.67 384.123 251.781C354.529 324.891 351.062 392.467 376.379 402.715C401.696 412.963 446.21 362.003 475.805 288.893Z" stroke="url(#paint39_linear_566_512)" stroke-width="2" stroke-miterlimit="10"/>
<path d="M480.791 289.262C508.698 214.526 508.558 145.441 480.479 134.957C452.4 124.472 407.016 176.558 379.109 251.294C351.203 326.03 351.343 395.115 379.422 405.599C407.5 416.084 452.885 363.998 480.791 289.262Z" stroke="url(#paint40_linear_566_512)" stroke-width="2" stroke-miterlimit="10"/>
<path d="M486.504 289.628C512.536 213.409 508.329 142.978 477.108 132.314C445.887 121.651 399.474 174.794 373.442 251.013C347.411 327.232 351.617 397.664 382.838 408.327C414.06 418.99 460.472 365.847 486.504 289.628Z" stroke="url(#paint41_linear_566_512)" stroke-width="2" stroke-miterlimit="10"/>
<path d="M492.913 289.737C516.884 212.183 508.145 140.605 473.394 129.864C438.643 119.123 391.039 173.286 367.068 250.841C343.097 328.395 351.836 399.973 386.587 410.714C421.338 421.455 468.942 367.292 492.913 289.737Z" stroke="url(#paint42_linear_566_512)" stroke-width="2" stroke-miterlimit="10"/>
<path d="M500.002 289.633C521.746 210.867 507.993 138.351 469.284 127.665C430.574 116.978 381.566 172.168 359.822 250.934C338.077 329.7 351.83 402.215 390.54 412.902C429.249 423.588 478.257 368.399 500.002 289.633Z" stroke="url(#paint43_linear_566_512)" stroke-width="2" stroke-miterlimit="10"/>
<path d="M508.116 289.244C527.481 209.439 508.203 136.257 465.059 125.788C421.915 115.32 371.242 171.529 351.878 251.334C332.513 331.14 351.791 404.322 394.935 414.791C438.079 425.259 488.752 369.05 508.116 289.244Z" stroke="url(#paint44_linear_566_512)" stroke-width="2" stroke-miterlimit="10"/>
<path d="M517.055 288.456C533.888 207.802 508.547 134.283 460.455 124.246C412.363 114.209 359.731 171.455 342.898 252.108C326.065 332.762 351.406 406.281 399.498 416.318C447.59 426.355 500.222 369.109 517.055 288.456Z" stroke="url(#paint45_linear_566_512)" stroke-width="2" stroke-miterlimit="10"/>
<path d="M527.161 287.265C541.354 205.879 509.344 132.313 455.664 122.951C401.983 113.589 346.961 171.977 332.767 253.363C318.573 334.749 350.584 408.315 404.264 417.677C457.944 427.039 512.967 368.651 527.161 287.265Z" stroke="url(#paint46_linear_566_512)" stroke-width="2" stroke-miterlimit="10"/>
<path d="M538.372 285.379C549.825 203.421 510.582 130.199 450.72 121.834C390.859 113.469 333.047 173.128 321.594 255.086C310.141 337.044 349.384 410.266 409.246 418.631C469.107 426.996 526.919 367.337 538.372 285.379Z" stroke="url(#paint47_linear_566_512)" stroke-width="2" stroke-miterlimit="10"/>
<path d="M550.762 282.973C559.397 200.631 512.292 128.205 445.549 121.205C378.805 114.205 317.698 175.283 309.062 257.625C300.427 339.967 347.532 412.393 414.276 419.393C481.019 426.393 542.126 365.316 550.762 282.973Z" stroke="url(#paint48_linear_566_512)" stroke-width="2" stroke-miterlimit="10"/>
<path d="M564.672 279.651C570.45 197.007 514.846 125.795 440.475 120.595C366.105 115.395 301.131 178.175 295.352 260.819C289.573 343.463 345.178 414.675 419.548 419.875C493.919 425.075 558.893 362.295 564.672 279.651Z" stroke="url(#paint49_linear_566_512)" stroke-width="2" stroke-miterlimit="10"/>
<path d="M430 420.287C512.843 420.287 580 353.13 580 270.287C580 187.444 512.843 120.287 430 120.287C347.157 120.287 280 187.444 280 270.287C280 353.13 347.157 420.287 430 420.287Z" stroke="url(#paint50_linear_566_512)" stroke-width="2" stroke-miterlimit="10"/>
<path d="M102.688 411.9L102.664 400.764L97.144 409.98H95.752L90.232 400.908V411.9H87.256V395.1H89.824L96.496 406.236L103.048 395.1H105.616L105.64 411.9H102.688ZM109.89 399.084H112.89V411.9H109.89V399.084ZM111.402 396.972C110.858 396.972 110.402 396.804 110.034 396.468C109.666 396.116 109.482 395.684 109.482 395.172C109.482 394.66 109.666 394.236 110.034 393.9C110.402 393.548 110.858 393.372 111.402 393.372C111.946 393.372 112.402 393.54 112.77 393.876C113.138 394.196 113.322 394.604 113.322 395.1C113.322 395.628 113.138 396.076 112.77 396.444C112.418 396.796 111.962 396.972 111.402 396.972ZM122.707 412.068C121.379 412.068 120.187 411.788 119.131 411.228C118.075 410.668 117.251 409.892 116.659 408.9C116.067 407.892 115.771 406.756 115.771 405.492C115.771 404.228 116.067 403.1 116.659 402.108C117.251 401.116 118.067 400.34 119.107 399.78C120.163 399.22 121.363 398.94 122.707 398.94C123.971 398.94 125.075 399.196 126.019 399.708C126.979 400.22 127.699 400.956 128.179 401.916L125.875 403.26C125.507 402.668 125.043 402.228 124.483 401.94C123.939 401.636 123.339 401.484 122.683 401.484C121.563 401.484 120.635 401.852 119.899 402.588C119.163 403.308 118.795 404.276 118.795 405.492C118.795 406.708 119.155 407.684 119.875 408.42C120.611 409.14 121.547 409.5 122.683 409.5C123.339 409.5 123.939 409.356 124.483 409.068C125.043 408.764 125.507 408.316 125.875 407.724L128.179 409.068C127.683 410.028 126.955 410.772 125.995 411.3C125.051 411.812 123.955 412.068 122.707 412.068ZM135.888 406.404L133.656 408.516V411.9H130.656V394.092H133.656V404.844L139.872 399.084H143.472L138.12 404.46L143.976 411.9H140.328L135.888 406.404ZM164.306 403.308H167.258V410.004C166.394 410.692 165.386 411.22 164.234 411.588C163.082 411.956 161.898 412.14 160.682 412.14C158.97 412.14 157.426 411.772 156.05 411.036C154.674 410.284 153.594 409.252 152.81 407.94C152.026 406.628 151.634 405.148 151.634 403.5C151.634 401.852 152.026 400.372 152.81 399.06C153.594 397.748 154.674 396.724 156.05 395.988C157.442 395.236 159.002 394.86 160.73 394.86C162.138 394.86 163.418 395.092 164.57 395.556C165.722 396.02 166.69 396.7 167.474 397.596L165.506 399.516C164.226 398.236 162.682 397.596 160.874 397.596C159.69 397.596 158.634 397.844 157.706 398.34C156.794 398.836 156.074 399.532 155.546 400.428C155.034 401.324 154.778 402.348 154.778 403.5C154.778 404.62 155.034 405.628 155.546 406.524C156.074 407.42 156.794 408.124 157.706 408.636C158.634 409.148 159.682 409.404 160.85 409.404C162.162 409.404 163.314 409.116 164.306 408.54V403.308ZM175.981 398.94C177.869 398.94 179.309 399.396 180.301 400.308C181.309 401.204 181.813 402.564 181.813 404.388V411.9H178.981V410.34C178.613 410.9 178.085 411.332 177.397 411.636C176.725 411.924 175.909 412.068 174.949 412.068C173.989 412.068 173.149 411.908 172.429 411.588C171.709 411.252 171.149 410.796 170.749 410.22C170.365 409.628 170.173 408.964 170.173 408.228C170.173 407.076 170.597 406.156 171.445 405.468C172.309 404.764 173.661 404.412 175.501 404.412H178.813V404.22C178.813 403.324 178.541 402.636 177.997 402.156C177.469 401.676 176.677 401.436 175.621 401.436C174.901 401.436 174.189 401.548 173.485 401.772C172.797 401.996 172.213 402.308 171.733 402.708L170.557 400.524C171.229 400.012 172.037 399.62 172.981 399.348C173.925 399.076 174.925 398.94 175.981 398.94ZM175.573 409.884C176.325 409.884 176.989 409.716 177.565 409.38C178.157 409.028 178.573 408.532 178.813 407.892V406.404H175.717C173.989 406.404 173.125 406.972 173.125 408.108C173.125 408.652 173.341 409.084 173.773 409.404C174.205 409.724 174.805 409.884 175.573 409.884ZM188.519 400.956C189.383 399.612 190.903 398.94 193.079 398.94V401.796C192.823 401.748 192.591 401.724 192.383 401.724C191.215 401.724 190.303 402.068 189.647 402.756C188.991 403.428 188.663 404.404 188.663 405.684V411.9H185.663V399.084H188.519V400.956ZM208.059 394.092V411.9H205.179V410.244C204.683 410.852 204.067 411.308 203.331 411.612C202.611 411.916 201.811 412.068 200.931 412.068C199.699 412.068 198.587 411.796 197.595 411.252C196.619 410.708 195.851 409.94 195.291 408.948C194.731 407.94 194.451 406.788 194.451 405.492C194.451 404.196 194.731 403.052 195.291 402.06C195.851 401.068 196.619 400.3 197.595 399.756C198.587 399.212 199.699 398.94 200.931 398.94C201.779 398.94 202.555 399.084 203.259 399.372C203.963 399.66 204.563 400.092 205.059 400.668V394.092H208.059ZM201.291 409.5C202.011 409.5 202.659 409.34 203.235 409.02C203.811 408.684 204.267 408.212 204.603 407.604C204.939 406.996 205.107 406.292 205.107 405.492C205.107 404.692 204.939 403.988 204.603 403.38C204.267 402.772 203.811 402.308 203.235 401.988C202.659 401.652 202.011 401.484 201.291 401.484C200.571 401.484 199.923 401.652 199.347 401.988C198.771 402.308 198.315 402.772 197.979 403.38C197.643 403.988 197.475 404.692 197.475 405.492C197.475 406.292 197.643 406.996 197.979 407.604C198.315 408.212 198.771 408.684 199.347 409.02C199.923 409.34 200.571 409.5 201.291 409.5ZM223.984 399.084L217.984 412.932C217.424 414.324 216.744 415.3 215.944 415.86C215.144 416.436 214.176 416.724 213.04 416.724C212.4 416.724 211.768 416.62 211.144 416.412C210.52 416.204 210.008 415.916 209.608 415.548L210.808 413.34C211.096 413.612 211.432 413.828 211.816 413.988C212.216 414.148 212.616 414.228 213.016 414.228C213.544 414.228 213.976 414.092 214.312 413.82C214.664 413.548 214.984 413.092 215.272 412.452L215.488 411.948L209.896 399.084H213.016L217.048 408.564L221.104 399.084H223.984Z" fill="white"/>
<path d="M270.864 395.1V411.9H267.744V397.716H264.192V395.1H270.864ZM286.365 409.26V411.9H273.981V409.812L280.653 403.476C281.405 402.756 281.909 402.132 282.165 401.604C282.437 401.06 282.573 400.524 282.573 399.996C282.573 399.212 282.309 398.612 281.781 398.196C281.253 397.78 280.477 397.572 279.453 397.572C277.741 397.572 276.429 398.156 275.517 399.324L273.333 397.644C273.989 396.764 274.869 396.084 275.973 395.604C277.093 395.108 278.341 394.86 279.717 394.86C281.541 394.86 282.997 395.292 284.085 396.156C285.173 397.02 285.717 398.196 285.717 399.684C285.717 400.596 285.525 401.452 285.141 402.252C284.757 403.052 284.021 403.964 282.933 404.988L278.445 409.26H286.365ZM294.544 391.692H297.232L289.312 414.3H286.624L294.544 391.692ZM309.474 409.26V411.9H297.09V409.812L303.762 403.476C304.514 402.756 305.018 402.132 305.274 401.604C305.546 401.06 305.682 400.524 305.682 399.996C305.682 399.212 305.418 398.612 304.89 398.196C304.362 397.78 303.586 397.572 302.562 397.572C300.85 397.572 299.538 398.156 298.626 399.324L296.442 397.644C297.098 396.764 297.978 396.084 299.082 395.604C300.202 395.108 301.45 394.86 302.826 394.86C304.65 394.86 306.106 395.292 307.194 396.156C308.282 397.02 308.826 398.196 308.826 399.684C308.826 400.596 308.634 401.452 308.25 402.252C307.866 403.052 307.13 403.964 306.042 404.988L301.554 409.26H309.474ZM325.899 408.084H322.923V411.9H319.899V408.084H310.683V405.924L318.963 395.1H322.299L314.499 405.444H319.995V402.06H322.923V405.444H325.899V408.084Z" fill="white"/>
<path d="M100 201C100 192.163 107.163 185 116 185H196C204.837 185 212 192.163 212 201V249C212 257.837 204.837 265 196 265H116C107.163 265 100 257.837 100 249V201Z" fill="white" fill-opacity="0.6"/>
<path d="M101 201C101 192.716 107.716 186 116 186H196C204.284 186 211 192.716 211 201V249C211 257.284 204.284 264 196 264H116C107.716 264 101 257.284 101 249V201Z" stroke="white" stroke-opacity="0.6" stroke-width="2"/>
<path d="M127 187H129V263H127V239H102V237H127V213H102V211H127V187Z" fill="white" fill-opacity="0.6"/>
<path d="M184 237H210V239H184V263H182V223C182 216.373 187.373 211 194 211H210V213H194C188.477 213 184 217.477 184 223V237Z" fill="white" fill-opacity="0.6"/>
<path d="M184 187H182V203H184V187Z" fill="white" fill-opacity="0.6"/>
<path fill-rule="evenodd" clip-rule="evenodd" d="M170 225C170 232.732 163.732 239 156 239C148.268 239 142 232.732 142 225C142 217.268 148.268 211 156 211C163.732 211 170 217.268 170 225ZM168 225C168 231.627 162.627 237 156 237C149.373 237 144 231.627 144 225C144 218.373 149.373 213 156 213C162.627 213 168 218.373 168 225Z" fill="white" fill-opacity="0.6"/>
<path d="M724.6 104.6C725.4 105.6 726 106.8 726.4 108C726.8 109.2 727 110.6 727 112C727 113.4 726.8 114.8 726.4 116C726 117.2 725.4 118.4 724.6 119.4C723.6 120.8 723.8 122.8 725.2 123.8C726.6 124.8 728.6 124.6 729.6 123.2C730.8 121.6 731.6 120 732.4 118C733.2 116 733.4 114 733.4 112C733.4 110 733 108 732.4 106C731.8 104.2 730.8 102.4 729.6 100.8C728.6 99.4 726.6 99.2 725.2 100.2C723.8 101.2 723.6 103.2 724.6 104.6Z" fill="white" fill-opacity="0.4"/>
<path d="M735.6 98.8C738 102.6 739.4 107.2 739.4 112C739.4 116.8 738 121.4 735.6 125.2C734.6 126.6 735.2 128.6 736.6 129.6C738.2 130.6 740 130 741 128.6C744 123.8 745.8 118.2 745.8 112C745.8 106 744 100.2 741 95.4C740 94 738 93.4 736.6 94.4C735.2 95.4 734.6 97.2 735.6 98.8Z" fill="white" fill-opacity="0.4"/>
<path d="M747.2 92.8C750.6 98.4 752.4 105 752.4 112C752.4 119 750.4 125.6 747.2 131.2C746.4 132.8 746.8 134.6 748.4 135.6C750 136.4 751.8 136 752.8 134.4C756.8 127.8 759 120.2 759 112C759 103.8 756.8 96.2 752.8 89.6C752 88 750 87.6 748.4 88.4C746.8 89.4 746.4 91.2 747.2 92.8Z" fill="white" fill-opacity="0.4"/>
<path d="M758.8 86.8C763 94.2 765.6 102.8 765.6 112C765.6 121.2 763.2 129.8 758.8 137.2C758 138.8 758.4 140.6 760 141.6C761.6 142.4 763.4 142 764.4 140.4C769.2 132 772 122.4 772 112C772 101.6 769.2 92 764.4 83.6C763.6 82 761.6 81.6 760 82.4C758.4 83.2 758 85.2 758.8 86.8Z" fill="white" fill-opacity="0.4"/>
<g filter="url(#filter0_b_566_512)">
<ellipse cx="713.239" cy="439.254" rx="37.3134" ry="37.3134" fill="white" fill-opacity="0.3"/>
</g>
<g filter="url(#filter1_b_566_512)">
<path d="M796.821 439.254C796.821 459.861 780.115 476.567 759.508 476.567C738.9 476.567 722.194 459.861 722.194 439.254C722.194 418.646 738.9 401.94 759.508 401.94C780.115 401.94 796.821 418.646 796.821 439.254Z" fill="white" fill-opacity="0.7"/>
</g>
<g filter="url(#filter2_b_566_512)">
<path d="M736.373 409.976C727.736 416.81 722.194 427.385 722.194 439.254C722.194 451.123 727.736 461.698 736.373 468.532C745.011 461.698 750.553 451.123 750.553 439.254C750.553 427.385 745.011 416.81 736.373 409.976Z" fill="white" fill-opacity="0.6"/>
</g>
<path d="M87.82 320H97C99.24 320 101.23 320.44 102.97 321.32C104.71 322.18 106.06 323.41 107.02 325.01C107.98 326.59 108.46 328.42 108.46 330.5C108.46 332.58 107.98 334.42 107.02 336.02C106.06 337.6 104.71 338.83 102.97 339.71C101.23 340.57 99.24 341 97 341H87.82V320ZM96.82 337.7C98.36 337.7 99.71 337.41 100.87 336.83C102.05 336.23 102.95 335.39 103.57 334.31C104.21 333.21 104.53 331.94 104.53 330.5C104.53 329.06 104.21 327.8 103.57 326.72C102.95 325.62 102.05 324.78 100.87 324.2C99.71 323.6 98.36 323.3 96.82 323.3H91.72V337.7H96.82ZM128.355 337.73V341H112.605V320H127.935V323.27H116.505V328.73H126.645V331.94H116.505V337.73H128.355ZM147.583 330.08C148.743 330.46 149.663 331.1 150.343 332C151.023 332.88 151.363 333.98 151.363 335.3C151.363 337.12 150.663 338.53 149.263 339.53C147.863 340.51 145.823 341 143.143 341H132.703V320H142.543C145.023 320 146.933 320.49 148.273 321.47C149.613 322.43 150.283 323.76 150.283 325.46C150.283 326.5 150.043 327.42 149.563 328.22C149.083 329.02 148.423 329.64 147.583 330.08ZM136.603 323.06V328.85H142.123C143.483 328.85 144.523 328.61 145.243 328.13C145.983 327.63 146.353 326.91 146.353 325.97C146.353 325.01 145.983 324.29 145.243 323.81C144.523 323.31 143.483 323.06 142.123 323.06H136.603ZM142.903 337.94C145.923 337.94 147.433 336.93 147.433 334.91C147.433 332.89 145.923 331.88 142.903 331.88H136.603V337.94H142.903ZM155.525 320H159.425V341H155.525V320ZM169.365 323.3H162.405V320H180.225V323.3H173.265V341H169.365V323.3ZM201.163 341.3C199.043 341.3 197.123 340.84 195.403 339.92C193.703 338.98 192.363 337.69 191.383 336.05C190.423 334.41 189.943 332.56 189.943 330.5C189.943 328.44 190.433 326.59 191.413 324.95C192.393 323.31 193.733 322.03 195.433 321.11C197.153 320.17 199.073 319.7 201.193 319.7C202.913 319.7 204.483 320 205.903 320.6C207.323 321.2 208.523 322.07 209.503 323.21L206.983 325.58C205.463 323.94 203.593 323.12 201.373 323.12C199.933 323.12 198.643 323.44 197.503 324.08C196.363 324.7 195.473 325.57 194.833 326.69C194.193 327.81 193.873 329.08 193.873 330.5C193.873 331.92 194.193 333.19 194.833 334.31C195.473 335.43 196.363 336.31 197.503 336.95C198.643 337.57 199.933 337.88 201.373 337.88C203.593 337.88 205.463 337.05 206.983 335.39L209.503 337.79C208.523 338.93 207.313 339.8 205.873 340.4C204.453 341 202.883 341.3 201.163 341.3ZM226.42 336.14H215.92L213.85 341H209.83L219.28 320H223.12L232.6 341H228.52L226.42 336.14ZM225.13 333.08L221.17 323.9L217.24 333.08H225.13ZM249.011 341L244.721 334.85C244.541 334.87 244.271 334.88 243.911 334.88H239.171V341H235.271V320H243.911C245.731 320 247.311 320.3 248.651 320.9C250.011 321.5 251.051 322.36 251.771 323.48C252.491 324.6 252.851 325.93 252.851 327.47C252.851 329.05 252.461 330.41 251.681 331.55C250.921 332.69 249.821 333.54 248.381 334.1L253.211 341H249.011ZM248.921 327.47C248.921 326.13 248.481 325.1 247.601 324.38C246.721 323.66 245.431 323.3 243.731 323.3H239.171V331.67H243.731C245.431 331.67 246.721 331.31 247.601 330.59C248.481 329.85 248.921 328.81 248.921 327.47ZM257.215 320H266.395C268.635 320 270.625 320.44 272.365 321.32C274.105 322.18 275.455 323.41 276.415 325.01C277.375 326.59 277.855 328.42 277.855 330.5C277.855 332.58 277.375 334.42 276.415 336.02C275.455 337.6 274.105 338.83 272.365 339.71C270.625 340.57 268.635 341 266.395 341H257.215V320ZM266.215 337.7C267.755 337.7 269.105 337.41 270.265 336.83C271.445 336.23 272.345 335.39 272.965 334.31C273.605 333.21 273.925 331.94 273.925 330.5C273.925 329.06 273.605 327.8 272.965 326.72C272.345 325.62 271.445 324.78 270.265 324.2C269.105 323.6 267.755 323.3 266.215 323.3H261.115V337.7H266.215Z" fill="white"/>
</g>
<rect x="2.5" y="2.5" width="855" height="535" rx="37.5" stroke="url(#paint51_linear_566_512)" stroke-width="5"/>
<defs>
<filter id="filter0_b_566_512" x="625.925" y="351.94" width="174.627" height="174.627" filterUnits="userSpaceOnUse" color-interpolation-filters="sRGB">
<feFlood flood-opacity="0" result="BackgroundImageFix"/>
<feGaussianBlur in="BackgroundImageFix" stdDeviation="25"/>
<feComposite in2="SourceAlpha" operator="in" result="effect1_backgroundBlur_566_512"/>
<feBlend mode="normal" in="SourceGraphic" in2="effect1_backgroundBlur_566_512" result="shape"/>
</filter>
<filter id="filter1_b_566_512" x="672.194" y="351.94" width="174.627" height="174.627" filterUnits="userSpaceOnUse" color-interpolation-filters="sRGB">
<feFlood flood-opacity="0" result="BackgroundImageFix"/>
<feGaussianBlur in="BackgroundImageFix" stdDeviation="25"/>
<feComposite in2="SourceAlpha" operator="in" result="effect1_backgroundBlur_566_512"/>
<feBlend mode="normal" in="SourceGraphic" in2="effect1_backgroundBlur_566_512" result="shape"/>
</filter>
<filter id="filter2_b_566_512" x="672.194" y="359.976" width="128.358" height="158.556" filterUnits="userSpaceOnUse" color-interpolation-filters="sRGB">
<feFlood flood-opacity="0" result="BackgroundImageFix"/>
<feGaussianBlur in="BackgroundImageFix" stdDeviation="25"/>
<feComposite in2="SourceAlpha" operator="in" result="effect1_backgroundBlur_566_512"/>
<feBlend mode="normal" in="SourceGraphic" in2="effect1_backgroundBlur_566_512" result="shape"/>
</filter>
<linearGradient id="paint0_linear_566_512" x1="427.71" y1="265.947" x2="432.305" y2="274.595" gradientUnits="userSpaceOnUse">
<stop stop-color="#03BFC0"/>
<stop offset="1" stop-color="#8C5F80"/>
</linearGradient>
<linearGradient id="paint1_linear_566_512" x1="427.559" y1="265.86" x2="432.482" y2="274.702" gradientUnits="userSpaceOnUse">
<stop stop-color="#03BFC0"/>
<stop offset="1" stop-color="#8C5F80"/>
</linearGradient>
<linearGradient id="paint2_linear_566_512" x1="427.455" y1="265.747" x2="432.711" y2="274.776" gradientUnits="userSpaceOnUse">
<stop stop-color="#03BFC0"/>
<stop offset="1" stop-color="#8C5F80"/>
</linearGradient>
<linearGradient id="paint3_linear_566_512" x1="427.161" y1="265.714" x2="432.75" y2="274.922" gradientUnits="userSpaceOnUse">
<stop stop-color="#03BFC0"/>
<stop offset="1" stop-color="#8C5F80"/>
</linearGradient>
<linearGradient id="paint4_linear_566_512" x1="427.081" y1="265.616" x2="433.01" y2="274.999" gradientUnits="userSpaceOnUse">
<stop stop-color="#03BFC0"/>
<stop offset="1" stop-color="#8C5F80"/>
</linearGradient>
<linearGradient id="paint5_linear_566_512" x1="426.874" y1="265.489" x2="433.146" y2="275.039" gradientUnits="userSpaceOnUse">
<stop stop-color="#03BFC0"/>
<stop offset="1" stop-color="#8C5F80"/>
</linearGradient>
<linearGradient id="paint6_linear_566_512" x1="426.579" y1="265.396" x2="433.287" y2="275.243" gradientUnits="userSpaceOnUse">
<stop stop-color="#03BFC0"/>
<stop offset="1" stop-color="#8C5F80"/>
</linearGradient>
<linearGradient id="paint7_linear_566_512" x1="426.357" y1="265.232" x2="433.511" y2="275.365" gradientUnits="userSpaceOnUse">
<stop stop-color="#03BFC0"/>
<stop offset="1" stop-color="#8C5F80"/>
</linearGradient>
<linearGradient id="paint8_linear_566_512" x1="426.187" y1="265.052" x2="433.794" y2="275.463" gradientUnits="userSpaceOnUse">
<stop stop-color="#03BFC0"/>
<stop offset="1" stop-color="#8C5F80"/>
</linearGradient>
<linearGradient id="paint9_linear_566_512" x1="425.979" y1="265.028" x2="434.047" y2="275.708" gradientUnits="userSpaceOnUse">
<stop stop-color="#03BFC0"/>
<stop offset="1" stop-color="#8C5F80"/>
</linearGradient>
<linearGradient id="paint10_linear_566_512" x1="425.767" y1="264.727" x2="434.406" y2="275.792" gradientUnits="userSpaceOnUse">
<stop stop-color="#03BFC0"/>
<stop offset="1" stop-color="#8C5F80"/>
</linearGradient>
<linearGradient id="paint11_linear_566_512" x1="425.375" y1="264.616" x2="434.593" y2="276.053" gradientUnits="userSpaceOnUse">
<stop stop-color="#03BFC0"/>
<stop offset="1" stop-color="#8C5F80"/>
</linearGradient>
<linearGradient id="paint12_linear_566_512" x1="425.013" y1="264.393" x2="434.823" y2="276.189" gradientUnits="userSpaceOnUse">
<stop stop-color="#03BFC0"/>
<stop offset="1" stop-color="#8C5F80"/>
</linearGradient>
<linearGradient id="paint13_linear_566_512" x1="424.792" y1="264.18" x2="435.207" y2="276.321" gradientUnits="userSpaceOnUse">
<stop stop-color="#03BFC0"/>
<stop offset="1" stop-color="#8C5F80"/>
</linearGradient>
<linearGradient id="paint14_linear_566_512" x1="424.47" y1="264.007" x2="435.608" y2="276.601" gradientUnits="userSpaceOnUse">
<stop stop-color="#03BFC0"/>
<stop offset="1" stop-color="#8C5F80"/>
</linearGradient>
<linearGradient id="paint15_linear_566_512" x1="424.002" y1="263.734" x2="435.988" y2="276.881" gradientUnits="userSpaceOnUse">
<stop stop-color="#03BFC0"/>
<stop offset="1" stop-color="#8C5F80"/>
</linearGradient>
<linearGradient id="paint16_linear_566_512" x1="423.635" y1="263.422" x2="436.489" y2="277.102" gradientUnits="userSpaceOnUse">
<stop stop-color="#03BFC0"/>
<stop offset="1" stop-color="#8C5F80"/>
</linearGradient>
<linearGradient id="paint17_linear_566_512" x1="423.188" y1="263.161" x2="436.928" y2="277.349" gradientUnits="userSpaceOnUse">
<stop stop-color="#03BFC0"/>
<stop offset="1" stop-color="#8C5F80"/>
</linearGradient>
<linearGradient id="paint18_linear_566_512" x1="422.615" y1="262.938" x2="437.373" y2="277.726" gradientUnits="userSpaceOnUse">
<stop stop-color="#03BFC0"/>
<stop offset="1" stop-color="#8C5F80"/>
</linearGradient>
<linearGradient id="paint19_linear_566_512" x1="422.129" y1="262.622" x2="437.93" y2="277.98" gradientUnits="userSpaceOnUse">
<stop stop-color="#03BFC0"/>
<stop offset="1" stop-color="#8C5F80"/>
</linearGradient>
<linearGradient id="paint20_linear_566_512" x1="421.439" y1="262.19" x2="438.543" y2="278.311" gradientUnits="userSpaceOnUse">
<stop stop-color="#03BFC0"/>
<stop offset="1" stop-color="#8C5F80"/>
</linearGradient>
<linearGradient id="paint21_linear_566_512" x1="420.859" y1="261.927" x2="439.173" y2="278.664" gradientUnits="userSpaceOnUse">
<stop stop-color="#03BFC0"/>
<stop offset="1" stop-color="#8C5F80"/>
</linearGradient>
<linearGradient id="paint22_linear_566_512" x1="420.068" y1="261.453" x2="439.865" y2="278.982" gradientUnits="userSpaceOnUse">
<stop stop-color="#03BFC0"/>
<stop offset="1" stop-color="#8C5F80"/>
</linearGradient>
<linearGradient id="paint23_linear_566_512" x1="419.314" y1="261.131" x2="440.749" y2="279.513" gradientUnits="userSpaceOnUse">
<stop stop-color="#03BFC0"/>
<stop offset="1" stop-color="#8C5F80"/>
</linearGradient>
<linearGradient id="paint24_linear_566_512" x1="418.408" y1="260.727" x2="441.518" y2="279.906" gradientUnits="userSpaceOnUse">
<stop stop-color="#03BFC0"/>
<stop offset="1" stop-color="#8C5F80"/>
</linearGradient>
<linearGradient id="paint25_linear_566_512" x1="417.445" y1="260.142" x2="442.525" y2="280.264" gradientUnits="userSpaceOnUse">
<stop stop-color="#03BFC0"/>
<stop offset="1" stop-color="#8C5F80"/>
</linearGradient>
<linearGradient id="paint26_linear_566_512" x1="416.383" y1="259.708" x2="443.604" y2="280.806" gradientUnits="userSpaceOnUse">
<stop stop-color="#03BFC0"/>
<stop offset="1" stop-color="#8C5F80"/>
</linearGradient>
<linearGradient id="paint27_linear_566_512" x1="415.151" y1="259.239" x2="444.822" y2="281.429" gradientUnits="userSpaceOnUse">
<stop stop-color="#03BFC0"/>
<stop offset="1" stop-color="#8C5F80"/>
</linearGradient>
<linearGradient id="paint28_linear_566_512" x1="413.881" y1="258.694" x2="446.059" y2="281.881" gradientUnits="userSpaceOnUse">
<stop stop-color="#03BFC0"/>
<stop offset="1" stop-color="#8C5F80"/>
</linearGradient>
<linearGradient id="paint29_linear_566_512" x1="412.356" y1="258.097" x2="447.499" y2="282.459" gradientUnits="userSpaceOnUse">
<stop stop-color="#03BFC0"/>
<stop offset="1" stop-color="#8C5F80"/>
</linearGradient>
<linearGradient id="paint30_linear_566_512" x1="410.766" y1="257.43" x2="449.216" y2="283.03" gradientUnits="userSpaceOnUse">
<stop stop-color="#03BFC0"/>
<stop offset="1" stop-color="#8C5F80"/>
</linearGradient>
<linearGradient id="paint31_linear_566_512" x1="409.056" y1="256.837" x2="451.022" y2="283.62" gradientUnits="userSpaceOnUse">
<stop stop-color="#03BFC0"/>
<stop offset="1" stop-color="#8C5F80"/>
</linearGradient>
<linearGradient id="paint32_linear_566_512" x1="406.97" y1="256.164" x2="453.087" y2="284.311" gradientUnits="userSpaceOnUse">
<stop stop-color="#03BFC0"/>
<stop offset="1" stop-color="#8C5F80"/>
</linearGradient>
<linearGradient id="paint33_linear_566_512" x1="404.79" y1="255.59" x2="455.288" y2="284.993" gradientUnits="userSpaceOnUse">
<stop stop-color="#03BFC0"/>
<stop offset="1" stop-color="#8C5F80"/>
</linearGradient>
<linearGradient id="paint34_linear_566_512" x1="402.152" y1="254.894" x2="457.696" y2="285.65" gradientUnits="userSpaceOnUse">
<stop stop-color="#03BFC0"/>
<stop offset="1" stop-color="#8C5F80"/>
</linearGradient>
<linearGradient id="paint35_linear_566_512" x1="399.372" y1="254.263" x2="460.647" y2="286.43" gradientUnits="userSpaceOnUse">
<stop stop-color="#03BFC0"/>
<stop offset="1" stop-color="#8C5F80"/>
</linearGradient>
<linearGradient id="paint36_linear_566_512" x1="396.26" y1="253.563" x2="463.825" y2="287.052" gradientUnits="userSpaceOnUse">
<stop stop-color="#03BFC0"/>
<stop offset="1" stop-color="#8C5F80"/>
</linearGradient>
<linearGradient id="paint37_linear_566_512" x1="392.692" y1="252.867" x2="467.412" y2="287.676" gradientUnits="userSpaceOnUse">
<stop stop-color="#03BFC0"/>
<stop offset="1" stop-color="#8C5F80"/>
</linearGradient>
<linearGradient id="paint38_linear_566_512" x1="388.652" y1="252.28" x2="471.253" y2="288.256" gradientUnits="userSpaceOnUse">
<stop stop-color="#03BFC0"/>
<stop offset="1" stop-color="#8C5F80"/>
</linearGradient>
<linearGradient id="paint39_linear_566_512" x1="384.123" y1="251.781" x2="475.805" y2="288.893" gradientUnits="userSpaceOnUse">
<stop stop-color="#03BFC0"/>
<stop offset="1" stop-color="#8C5F80"/>
</linearGradient>
<linearGradient id="paint40_linear_566_512" x1="379.109" y1="251.294" x2="480.791" y2="289.262" gradientUnits="userSpaceOnUse">
<stop stop-color="#03BFC0"/>
<stop offset="1" stop-color="#8C5F80"/>
</linearGradient>
<linearGradient id="paint41_linear_566_512" x1="373.442" y1="251.013" x2="486.504" y2="289.628" gradientUnits="userSpaceOnUse">
<stop stop-color="#03BFC0"/>
<stop offset="1" stop-color="#8C5F80"/>
</linearGradient>
<linearGradient id="paint42_linear_566_512" x1="367.068" y1="250.841" x2="492.913" y2="289.737" gradientUnits="userSpaceOnUse">
<stop stop-color="#03BFC0"/>
<stop offset="1" stop-color="#8C5F80"/>
</linearGradient>
<linearGradient id="paint43_linear_566_512" x1="359.822" y1="250.934" x2="500.002" y2="289.633" gradientUnits="userSpaceOnUse">
<stop stop-color="#03BFC0"/>
<stop offset="1" stop-color="#8C5F80"/>
</linearGradient>
<linearGradient id="paint44_linear_566_512" x1="351.878" y1="251.334" x2="508.116" y2="289.245" gradientUnits="userSpaceOnUse">
<stop stop-color="#03BFC0"/>
<stop offset="1" stop-color="#8C5F80"/>
</linearGradient>
<linearGradient id="paint45_linear_566_512" x1="342.898" y1="252.108" x2="517.055" y2="288.456" gradientUnits="userSpaceOnUse">
<stop stop-color="#03BFC0"/>
<stop offset="1" stop-color="#8C5F80"/>
</linearGradient>
<linearGradient id="paint46_linear_566_512" x1="332.767" y1="253.363" x2="527.161" y2="287.265" gradientUnits="userSpaceOnUse">
<stop stop-color="#03BFC0"/>
<stop offset="1" stop-color="#8C5F80"/>
</linearGradient>
<linearGradient id="paint47_linear_566_512" x1="321.594" y1="255.086" x2="538.372" y2="285.379" gradientUnits="userSpaceOnUse">
<stop stop-color="#03BFC0"/>
<stop offset="1" stop-color="#8C5F80"/>
</linearGradient>
<linearGradient id="paint48_linear_566_512" x1="309.062" y1="257.625" x2="550.762" y2="282.974" gradientUnits="userSpaceOnUse">
<stop stop-color="#03BFC0"/>
<stop offset="1" stop-color="#8C5F80"/>
</linearGradient>
<linearGradient id="paint49_linear_566_512" x1="295.352" y1="260.819" x2="564.672" y2="279.651" gradientUnits="userSpaceOnUse">
<stop stop-color="#03BFC0"/>
<stop offset="1" stop-color="#8C5F80"/>
</linearGradient>
<linearGradient id="paint50_linear_566_512" x1="430" y1="120.287" x2="430" y2="420.287" gradientUnits="userSpaceOnUse">
<stop stop-color="#03BFC0"/>
<stop offset="1" stop-color="#8C5F80"/>
</linearGradient>
<linearGradient id="paint51_linear_566_512" x1="-6.4075e-06" y1="270" x2="860" y2="270" gradientUnits="userSpaceOnUse">
<stop stop-color="white" stop-opacity="0.8"/>
<stop offset="1" stop-color="white" stop-opacity="0.1"/>
</linearGradient>
<clipPath id="clip0_566_512">
<rect width="860" height="540" rx="40" fill="white"/>
</clipPath>
</defs>
</svg>
