<svg width="439" height="81" viewBox="0 0 439 81" fill="none" xmlns="http://www.w3.org/2000/svg">
<g filter="url(#filter0_bd_108_2)">
<path d="M4.44127 15.9697L46.3362 14.5198L46.6682 24.114L15.8067 25.1821L16.3269 40.2131L44.2302 39.2474L44.5623 48.8417L16.659 49.8074L17.4116 71.5544L6.37823 71.9362L4.44127 15.9697ZM64.1564 70.5769C59.9456 70.7227 56.5121 69.4273 53.8558 66.6909C51.1977 63.9012 49.7885 60.1877 49.628 55.5505L48.7619 30.5254L59.6354 30.1491L60.507 55.334C60.5679 57.093 61.0441 58.5174 61.9357 59.6072C62.8787 60.6419 64.0698 61.1343 65.5089 61.0845L70.1461 60.924C71.9051 60.8631 73.4792 60.0882 74.8685 58.5993C76.256 57.057 77.2014 55.0765 77.7047 52.6576L76.905 29.5514L87.7785 29.1751L89.1593 69.0712L79.0853 69.4199L78.9082 64.3029C77.7413 66.051 76.2702 67.4894 74.4948 68.6182C72.7728 69.7451 71.0856 70.3371 69.4332 70.3943L64.1564 70.5769ZM96.226 28.8828L106.3 28.5341L106.466 33.3312C107.581 31.6383 109.055 30.2798 110.888 29.2559C112.718 28.1786 114.566 27.6076 116.432 27.5431L121.229 27.377C125.493 27.2295 128.95 28.4439 131.601 31.0205C134.305 33.5951 135.733 37.0678 135.884 41.4386L136.783 67.423L125.91 67.7993L125.024 42.2146C124.967 40.5623 124.468 39.2454 123.527 38.2641C122.639 37.2809 121.502 36.8132 120.116 36.8612L115.319 37.0272C113.454 37.0918 111.799 37.8428 110.354 39.2803C108.961 40.6626 108.062 42.4548 107.658 44.6568L108.48 68.4025L97.6067 68.7789L96.226 28.8828ZM159.001 67.2944C154.257 67.4586 150.37 66.1523 147.338 63.3755C144.36 60.5968 142.79 56.8622 142.628 52.1717L142.313 43.0572C142.2 39.8058 142.794 36.9302 144.095 34.4303C145.394 31.8772 147.273 29.891 149.733 28.4718C152.19 26.9993 155.071 26.2058 158.375 26.0914L162.773 25.9392C164.318 25.8857 165.903 26.1778 167.526 26.8154C169.147 27.3996 170.51 28.233 171.615 29.3154L170.953 10.2069L181.827 9.83054L183.764 65.797L173.69 66.1457L173.507 60.8688C172.502 62.6647 171.113 64.1536 169.339 65.3357C167.564 66.4644 165.69 67.0629 163.718 67.1312L159.001 67.2944ZM164.594 57.7353C166.779 57.6597 168.564 56.8241 169.95 55.2285C171.387 53.5778 172.167 51.4429 172.29 48.8237L172.049 41.8679C171.604 39.8021 170.721 38.1783 169.399 36.9967C168.129 35.7599 166.641 35.171 164.935 35.23L160.058 35.3988C157.926 35.4726 156.219 36.2521 154.936 37.7374C153.707 39.2208 153.133 41.1351 153.214 43.4804L153.474 50.9959C153.548 53.1279 154.194 54.8399 155.413 56.1319C156.63 57.3705 158.171 57.9576 160.036 57.893L164.594 57.7353ZM190.583 9.5275L232.478 8.07756L232.81 17.6718L201.948 18.7399L202.469 33.7709L230.372 32.8052L230.704 42.3995L202.801 43.3652L203.553 65.1121L192.52 65.494L190.583 9.5275ZM250.298 64.1347C246.087 64.2805 242.654 62.9851 239.998 60.2487C237.339 57.459 235.93 53.7455 235.77 49.1083L234.904 24.0832L245.777 23.7069L246.649 48.8918C246.71 50.6508 247.186 52.0752 248.077 53.165C249.02 54.1996 250.211 54.6921 251.651 54.6423L256.288 54.4818C258.047 54.4209 259.621 53.646 261.01 52.157C262.398 50.6148 263.343 48.6342 263.846 46.2154L263.047 23.1092L273.92 22.7329L275.301 62.629L265.227 62.9777L265.05 57.8607C263.883 59.6088 262.412 61.0472 260.637 62.176C258.914 63.3029 257.227 63.8949 255.575 63.9521L250.298 64.1347ZM297.922 62.4865C293.072 62.6544 289.136 61.5098 286.116 59.0528C283.096 56.5958 281.514 53.2885 281.37 49.131L292.084 48.7602C292.134 50.1994 292.654 51.3554 293.645 52.2283C294.687 53.0461 296.008 53.4273 297.607 53.372L304.802 53.1229C308 53.0122 309.569 52.0774 309.508 50.3185L309.461 48.9593C309.443 48.4263 309.16 47.9558 308.612 47.5478C308.062 47.0866 307.332 46.7916 306.42 46.6631L292.505 44.7432C289.235 44.3228 286.611 43.2662 284.631 41.5737C282.703 39.826 281.697 37.7529 281.614 35.3543L281.523 32.7159C281.404 29.3046 282.698 26.5916 285.403 24.5768C288.162 22.5602 292.046 21.4652 297.057 21.2918L303.293 21.0759C307.77 20.921 311.41 21.9958 314.211 24.3002C317.064 26.5496 318.558 29.6197 318.692 33.5107L307.979 33.8815C307.938 32.7089 307.506 31.79 306.683 31.1247C305.912 30.4576 304.888 30.1462 303.608 30.1905L297.532 30.4008C294.067 30.5207 292.363 31.3802 292.418 32.9792L292.462 34.2584C292.483 34.8448 292.713 35.3437 293.155 35.7554C293.647 36.1119 294.323 36.3554 295.181 36.4857L309.824 38.6206C312.88 39.0484 315.372 40.1095 317.298 41.8039C319.223 43.445 320.223 45.3582 320.299 47.5436L320.398 50.4219C320.518 53.8865 319.174 56.6813 316.366 58.8064C313.611 60.9296 309.862 62.0733 305.118 62.2375L297.922 62.4865ZM332.194 16.9538C330.115 17.0258 328.416 16.4976 327.096 15.3692C325.828 14.1857 325.159 12.6079 325.091 10.6357C325.023 8.66358 325.581 7.06998 326.767 5.85492C328.004 4.58471 329.661 3.91363 331.74 3.84169C333.819 3.76975 335.492 4.32553 336.761 5.50903C338.081 6.63739 338.775 8.18765 338.843 10.1598C338.911 12.132 338.327 13.7531 337.09 15.0233C335.905 16.2384 334.273 16.8819 332.194 16.9538ZM326.887 20.8998L337.761 20.5234L339.141 60.4195L328.268 60.7959L326.887 20.8998ZM364.515 60.1818C361.157 60.298 358.15 59.7617 355.494 58.5728C352.89 57.3288 350.826 55.5325 349.304 53.1837C347.835 50.8331 347.046 48.0854 346.938 44.9406L346.614 35.5862C346.505 32.4414 347.129 29.6449 348.485 27.1965C349.839 24.6948 351.772 22.7334 354.285 21.3124C356.85 19.8894 359.812 19.1199 363.17 19.0036L370.366 18.7546C373.724 18.6384 376.705 19.2023 379.31 20.4463C381.968 21.6884 384.059 23.5105 385.583 25.9126C387.105 28.2613 387.92 31.0081 388.029 34.1529L388.353 43.5073C388.462 46.6521 387.838 49.4486 386.482 51.897C385.126 54.3454 383.165 56.281 380.599 57.704C378.085 59.0717 375.122 59.8147 371.711 59.9327L364.515 60.1818ZM371.227 50.5839C373.2 50.5156 374.749 49.7949 375.875 48.4218C377 46.9954 377.525 45.1895 377.449 43.0041L377.181 35.2488C377.105 33.0634 376.458 31.3248 375.239 30.0328C374.018 28.6876 372.449 28.0481 370.53 28.1145L363.654 28.3525C361.735 28.4189 360.213 29.1653 359.089 30.5918C357.962 31.9649 357.437 33.7441 357.512 35.9295L357.781 43.6848C357.856 45.8702 358.504 47.6355 359.725 48.9807C360.944 50.2727 362.486 50.8864 364.351 50.8218L371.227 50.5839ZM394.354 18.5648L404.428 18.2161L404.594 23.0133C405.709 21.3203 407.183 19.9619 409.015 18.9379C410.846 17.8606 412.694 17.2897 414.559 17.2251L419.357 17.0591C423.621 16.9115 427.078 18.126 429.729 20.7025C432.433 23.2772 433.86 26.7499 434.012 31.1206L434.911 57.105L424.038 57.4814L423.152 31.8967C423.095 30.2443 422.596 28.9275 421.655 27.9461C420.767 26.9629 419.63 26.4953 418.244 26.5432L413.447 26.7093C411.581 26.7738 409.926 27.5249 408.482 28.9623C407.089 30.3447 406.19 32.1368 405.786 34.3388L406.608 58.0846L395.734 58.4609L394.354 18.5648Z" fill="#222223"/>
</g>
<defs>
<filter id="filter0_bd_108_2" x="0.413574" y="-3.66089" width="438.52" height="84.2367" filterUnits="userSpaceOnUse" color-interpolation-filters="sRGB">
<feFlood flood-opacity="0" result="BackgroundImageFix"/>
<feGaussianBlur in="BackgroundImageFix" stdDeviation="2"/>
<feComposite in2="SourceAlpha" operator="in" result="effect1_backgroundBlur_108_2"/>
<feColorMatrix in="SourceAlpha" type="matrix" values="0 0 0 0 0 0 0 0 0 0 0 0 0 0 0 0 0 0 127 0" result="hardAlpha"/>
<feOffset dy="4"/>
<feGaussianBlur stdDeviation="2"/>
<feComposite in2="hardAlpha" operator="out"/>
<feColorMatrix type="matrix" values="0 0 0 0 0 0 0 0 0 0 0 0 0 0 0 0 0 0 0.25 0"/>
<feBlend mode="normal" in2="effect1_backgroundBlur_108_2" result="effect2_dropShadow_108_2"/>
<feBlend mode="normal" in="SourceGraphic" in2="effect2_dropShadow_108_2" result="shape"/>
</filter>
</defs>
</svg>
